<svg width="10" height="10" viewBox="0 0 10 10" fill="none" xmlns="http://www.w3.org/2000/svg">
<path d="M8.34602 3.97115L5.22102 7.09614C5.192 7.1252 5.15754 7.14825 5.1196 7.16398C5.08166 7.1797 5.041 7.1878 4.99993 7.1878C4.95886 7.1878 4.9182 7.1797 4.88026 7.16398C4.84232 7.14825 4.80786 7.1252 4.77884 7.09614L1.65384 3.97115C1.5952 3.91251 1.56226 3.83298 1.56226 3.75005C1.56226 3.66713 1.5952 3.5876 1.65384 3.52896C1.71247 3.47032 1.792 3.43738 1.87493 3.43738C1.95786 3.43738 2.03739 3.47032 2.09602 3.52896L4.99993 6.43325L7.90384 3.52896C7.93287 3.49992 7.96734 3.47689 8.00527 3.46118C8.04321 3.44547 8.08387 3.43738 8.12493 3.43738C8.16599 3.43738 8.20665 3.44547 8.24459 3.46118C8.28252 3.47689 8.31699 3.49992 8.34602 3.52896C8.37506 3.55799 8.39809 3.59246 8.4138 3.6304C8.42952 3.66833 8.4376 3.70899 8.4376 3.75005C8.4376 3.79111 8.42952 3.83177 8.4138 3.86971C8.39809 3.90764 8.37506 3.94211 8.34602 3.97115Z" fill="white"/>
</svg>
