<svg width="128" height="124" viewBox="0 0 128 124" fill="none" xmlns="http://www.w3.org/2000/svg">
<path d="M98.0224 123.214C98.1409 123.753 98.6742 124.095 99.2136 123.976L108.004 122.046C108.544 121.927 108.885 121.394 108.766 120.855C108.648 120.315 108.115 119.974 107.575 120.092L99.7614 121.808L98.0455 113.995C97.927 113.455 97.3937 113.114 96.8543 113.232C96.3148 113.351 95.9736 113.884 96.092 114.423L98.0224 123.214ZM1.03398 2.99892C23.9517 2.2006 45.8241 2.5778 64.6576 5.27523C83.5112 7.97553 99.2011 12.9856 109.854 21.362C120.44 29.6861 126.127 41.3899 124.911 57.7542C123.69 74.1954 115.494 95.3657 98.1568 122.461L99.8415 123.539C117.249 96.3335 125.648 74.8293 126.906 57.9024C128.169 40.8984 122.219 28.5403 111.09 19.7898C100.028 11.0915 83.9239 6.01424 64.9411 3.29543C45.9383 0.573743 23.9317 0.200084 0.96435 1.00013L1.03398 2.99892Z" fill="#043F2E"/>
</svg>
