<svg width="24" height="24" viewBox="0 0 24 24" fill="none" xmlns="http://www.w3.org/2000/svg">
<g clip-path="url(#clip0_2948_2362)">
<path d="M21.1237 18.0086H19.3191C19.1959 18.0086 19.0804 18.0625 19.0034 18.1574C18.8237 18.3756 18.6312 18.5861 18.4284 18.7863C17.599 19.6166 16.6165 20.2782 15.5354 20.7347C14.4153 21.2078 13.2115 21.4505 11.9956 21.4483C10.766 21.4483 9.57492 21.207 8.45572 20.7347C7.37459 20.2782 6.39215 19.6166 5.56275 18.7863C4.73186 17.9589 4.06933 16.9782 3.61186 15.8985C3.13697 14.7793 2.89824 13.5908 2.89824 12.3612C2.89824 11.1317 3.13954 9.94315 3.61186 8.82395C4.06878 7.74326 4.72592 6.77038 5.56275 5.93612C6.39958 5.10185 7.37246 4.44471 8.45572 3.98779C9.57492 3.51547 10.766 3.27417 11.9956 3.27417C13.2251 3.27417 14.4162 3.5129 15.5354 3.98779C16.6187 4.44471 17.5915 5.10185 18.4284 5.93612C18.6312 6.13891 18.8211 6.3494 19.0034 6.56502C19.0804 6.66 19.1985 6.71391 19.3191 6.71391H21.1237C21.2854 6.71391 21.3855 6.53422 21.2957 6.39817C19.3268 3.33835 15.8819 1.31301 11.9673 1.32328C5.81688 1.33868 0.885741 6.33143 0.947348 12.4742C1.00896 18.5194 5.93239 23.3992 11.9956 23.3992C15.8999 23.3992 19.3294 21.3764 21.2957 18.3243C21.383 18.1882 21.2854 18.0086 21.1237 18.0086ZM23.4057 12.1995L19.7632 9.32451C19.6271 9.2167 19.4295 9.31424 19.4295 9.48623V11.4371H15.8782C15.7652 11.4371 15.6728 11.5295 15.6728 11.6425V13.08C15.6728 13.1929 15.7652 13.2853 15.8782 13.2853H19.4295V15.2362C19.4295 15.4082 19.6297 15.5058 19.7632 15.3979L23.4057 12.5229C23.4303 12.5037 23.4501 12.4792 23.4638 12.4512C23.4774 12.4232 23.4845 12.3924 23.4845 12.3612C23.4845 12.3301 23.4774 12.2993 23.4638 12.2713C23.4501 12.2433 23.4303 12.2187 23.4057 12.1995Z" fill="url(#paint0_linear_2948_2362)"/>
<path d="M14.1454 10.7027C14.2076 11.3316 13.9812 11.7773 13.4663 12.04C13.8706 12.1367 14.173 12.3147 14.3734 12.5738C14.5738 12.833 14.6516 13.2027 14.6067 13.6831C14.5825 13.9284 14.5263 14.1444 14.4382 14.331C14.3501 14.5176 14.2387 14.6713 14.1039 14.7923C13.9691 14.9132 13.8015 15.0143 13.6011 15.0955C13.4007 15.1767 13.1908 15.2363 12.9713 15.2743C12.7519 15.3124 12.5005 15.3383 12.2172 15.3521V16.6738H11.4189V15.3728C11.1425 15.3728 10.9317 15.3711 10.7866 15.3676V16.6738H9.98836V15.3521C9.92616 15.3521 9.83286 15.3512 9.70846 15.3495C9.58406 15.3478 9.48903 15.3469 9.42338 15.3469H8.38672L8.5474 14.3984H9.12275C9.29552 14.3984 9.39573 14.3102 9.42338 14.134V12.0503H9.50631C9.48558 12.0469 9.45793 12.0451 9.42338 12.0451V10.5575C9.37846 10.3226 9.22468 10.2051 8.96206 10.2051H8.38672V9.35502L9.48558 9.3602C9.70673 9.3602 9.87432 9.35847 9.98836 9.35502V8.04883H10.7866V9.3291C11.0699 9.32219 11.2807 9.31874 11.4189 9.31874V8.04883H12.2172V9.35502C12.4902 9.37921 12.732 9.41808 12.9428 9.47164C13.1536 9.5252 13.3489 9.60295 13.5285 9.70489C13.7082 9.80683 13.8508 9.94159 13.9562 10.1092C14.0616 10.2768 14.1246 10.4746 14.1454 10.7027ZM13.0309 13.5276C13.0309 13.4032 13.005 13.2926 12.9532 13.1958C12.9014 13.0991 12.8374 13.0196 12.7614 12.9574C12.6854 12.8952 12.5861 12.8425 12.4634 12.7993C12.3407 12.7561 12.2275 12.7242 12.1239 12.7034C12.0202 12.6827 11.8924 12.6671 11.7403 12.6568C11.5883 12.6464 11.4691 12.6412 11.3827 12.6412C11.2963 12.6412 11.1848 12.643 11.0483 12.6464C10.9118 12.6499 10.8298 12.6516 10.8021 12.6516V14.4035C10.8298 14.4035 10.8937 14.4044 10.9939 14.4061C11.0941 14.4079 11.1771 14.4087 11.2427 14.4087C11.3084 14.4087 11.3999 14.4061 11.5174 14.401C11.6349 14.3958 11.736 14.3889 11.8207 14.3802C11.9053 14.3716 12.0038 14.3569 12.1161 14.3362C12.2284 14.3154 12.3243 14.2912 12.4038 14.2636C12.4832 14.236 12.5653 14.1997 12.65 14.1547C12.7346 14.1098 12.8029 14.058 12.8547 13.9992C12.9066 13.9405 12.9489 13.8714 12.9817 13.7919C13.0145 13.7124 13.0309 13.6243 13.0309 13.5276ZM12.6629 11.0603C12.6629 10.9463 12.6413 10.8452 12.5981 10.7571C12.555 10.669 12.5023 10.5964 12.4401 10.5394C12.3779 10.4824 12.2949 10.434 12.1913 10.3943C12.0876 10.3545 11.9926 10.326 11.9062 10.3087C11.8198 10.2915 11.7135 10.2776 11.5874 10.2673C11.4613 10.2569 11.3611 10.2526 11.2868 10.2543C11.2125 10.256 11.1192 10.2578 11.0069 10.2595C10.8946 10.2612 10.8263 10.2621 10.8021 10.2621V11.8534C10.8194 11.8534 10.879 11.8542 10.981 11.856C11.0829 11.8577 11.1632 11.8577 11.222 11.856C11.2807 11.8542 11.3671 11.8508 11.4811 11.8456C11.5952 11.8404 11.6902 11.8309 11.7662 11.8171C11.8422 11.8033 11.9312 11.7843 12.0332 11.7601C12.1351 11.7359 12.2189 11.7039 12.2846 11.6642C12.3502 11.6244 12.4141 11.5778 12.4763 11.5242C12.5385 11.4707 12.5852 11.4041 12.6163 11.3247C12.6474 11.2452 12.6629 11.1571 12.6629 11.0603Z" fill="url(#paint1_linear_2948_2362)"/>
</g>
<defs>
<linearGradient id="paint0_linear_2948_2362" x1="0.946778" y1="12.3612" x2="23.4845" y2="12.3612" gradientUnits="userSpaceOnUse">
<stop stop-color="#189CD8"/>
<stop offset="1" stop-color="#0A86BF"/>
</linearGradient>
<linearGradient id="paint1_linear_2948_2362" x1="8.38672" y1="12.3613" x2="14.619" y2="12.3613" gradientUnits="userSpaceOnUse">
<stop stop-color="#189CD8"/>
<stop offset="1" stop-color="#0A86BF"/>
</linearGradient>
<clipPath id="clip0_2948_2362">
<rect width="23" height="23" fill="white" transform="translate(0.485352 0.861328)"/>
</clipPath>
</defs>
</svg>
