<svg width="130" height="40" viewBox="0 0 130 40" fill="none" xmlns="http://www.w3.org/2000/svg">
<g clip-path="url(#clip0_2395_909)">
<path d="M30.4692 8.64563L28.4946 16.015L26.3575 24.01L24.3829 31.3794L22.4707 38.5111C20.6586 39.0742 18.7464 39.3744 16.7468 39.3744C15.822 39.3744 14.9097 39.3119 14.0224 39.1868L16.1094 31.3794L18.0841 24.01L20.2212 16.015L21.0835 12.787C22.1833 8.68317 15.9095 8.64563 15.9095 8.64563H13.8974L11.9228 16.015L9.78566 24.01L7.81104 31.3794L6.4613 36.4217C3.79932 34.7451 1.56225 32.4304 -0.0124512 29.7029L1.51226 24.01L3.64934 16.015L5.62397 8.64563L7.07369 3.24056C9.92314 1.60153 13.235 0.650635 16.7593 0.650635C19.3088 0.650635 21.7459 1.13859 23.9704 2.03944L22.1958 8.64563H30.4692Z" fill="#189CD8"/>
<path d="M59.5385 22.0206L60.6133 17.9918L61.6131 14.2758L62.6879 10.2471H54.3395C53.7146 10.2471 53.1647 10.2971 52.6898 10.3972C52.6523 10.3972 52.6023 10.4097 52.5649 10.4222C52.4399 10.4473 52.3149 10.4723 52.2024 10.5098C52.1649 10.5098 52.1274 10.5348 52.0899 10.5474C51.94 10.5974 51.79 10.6349 51.665 10.6975C51.5275 10.7475 51.4026 10.8101 51.2901 10.8601C51.2276 10.8852 51.1776 10.9227 51.1151 10.9477C50.9527 11.0353 50.8027 11.1354 50.6652 11.2355C50.6027 11.2855 50.5277 11.3356 50.4777 11.3856C50.4153 11.4357 50.3653 11.4857 50.3028 11.5358C50.2528 11.5858 50.2028 11.6359 50.1528 11.6859C50.1403 11.6984 50.1278 11.7235 50.1028 11.736C50.0778 11.7735 50.0403 11.7985 50.0153 11.8361C49.9653 11.8986 49.9154 11.9737 49.8654 12.0362C49.8404 12.0738 49.8279 12.0988 49.8029 12.1363C49.7404 12.2364 49.6904 12.324 49.6529 12.4116C49.6404 12.4366 49.6279 12.4616 49.6154 12.4992C49.6154 12.5117 49.6154 12.5242 49.6029 12.5367C49.5779 12.5993 49.5529 12.6618 49.5279 12.7119L49.4654 12.9621L49.1155 14.2633L48.1157 17.9793L47.0409 22.0081L46.0411 25.7241L44.9663 29.7529H57.4889L58.5637 25.7241H50.2153L51.2151 22.0081H59.5635L59.5385 22.0206ZM53.2647 14.2758H57.4389L56.4391 17.9918H52.2649L53.2647 14.2758Z" fill="white"/>
<path d="M74.9106 17.9794L75.9104 14.2634L76.9852 10.2722V10.2346H69.2617H64.4751L64.3877 10.5474L63.3878 14.2759L62.388 17.9919L61.3132 22.0207L60.3134 25.7367L59.8885 27.3256C59.8885 27.3256 59.8885 27.3256 59.8885 27.3507C59.8885 27.3507 59.876 27.4257 59.8635 27.4758C59.7885 27.9763 59.8385 29.6153 63.4128 29.7529C63.5503 29.7529 63.7003 29.7529 63.8503 29.7529H71.7612L72.836 25.7241L73.8358 22.0082L74.9106 17.9794ZM70.7364 17.9794L69.6616 22.0082L68.6618 25.7241H64.4876L65.4749 22.0457L66.5497 18.0169L67.5495 14.3009H71.7237L70.7364 17.9794Z" fill="white"/>
<path d="M88.7205 19.7685L88.7705 19.5808L89.1954 17.9918L90.1952 14.2758L91.27 10.2471H78.7474L77.6726 14.2758L76.6728 17.9918L75.598 22.0206L74.5982 25.7366L73.5234 29.7654H77.6976L78.7724 25.7366L79.7722 22.0206H83.9464C87.6457 22.0206 88.5205 20.344 88.7205 19.7685ZM85.0212 17.9918H80.847L81.8468 14.2758H86.021L85.0212 17.9918Z" fill="white"/>
<path d="M103.48 17.9794L104.48 14.2634L105.555 10.2346H97.2063C93.732 10.2346 92.7072 11.7986 92.4072 12.5743L92.2947 13.0122L91.9573 14.2634L90.9575 17.9794L89.8827 22.0082L88.8829 25.7241L87.8081 29.7529H100.331L101.405 25.7241L102.405 22.0082L103.48 17.9794ZM99.3059 17.9794L98.2311 22.0082L97.2313 25.7241H93.0571L94.0569 22.0082L94.6568 19.7811L95.1442 17.9794L96.144 14.2634H100.318L99.3184 17.9794H99.3059Z" fill="white"/>
<path d="M117.777 17.9794L118.777 14.2634L119.077 13.1373C119.077 13.1373 119.102 13.0623 119.115 13.0122C119.115 12.9872 119.115 12.9747 119.127 12.9497C119.689 10.7351 117.977 10.2972 116.977 10.2346H107.329L106.255 14.2634L105.255 17.9794L104.18 22.0082L103.18 25.7241L102.105 29.7529H114.628L115.703 25.7241L116.703 22.0082L117.777 17.9794ZM113.603 17.9794L113.303 19.0804L112.516 22.0082L111.516 25.7241H107.342L108.342 22.0082L109.416 17.9794L110.416 14.2634H114.59L113.591 17.9794H113.603Z" fill="white"/>
<path d="M124.451 25.7366C121.802 25.7366 122.164 23.8473 122.239 23.5345V23.497L122.639 22.0206L123.714 17.9918L124.714 14.2758L125.788 10.2471H121.614L120.539 14.2758L119.54 17.9918L118.465 22.0206L117.465 25.7366L116.39 29.7654H128.913L129.988 25.7366H124.439H124.451Z" fill="white"/>
<path d="M45.2538 22.0206L46.3286 17.9918L47.3284 14.2758L48.4032 10.2471H35.8806L34.8058 14.2758L33.806 17.9918L32.7312 22.0206L31.7314 25.7366L30.6566 29.7654H34.8308L35.9056 25.7741V25.7366L36.9054 22.0206L37.9802 17.9918L38.98 14.2758H39.9923C39.9923 14.2758 43.1542 14.2884 42.6043 16.3528L42.1669 17.9793L41.0921 22.0081L40.0923 25.7241L39.0175 29.7529H43.1917L44.2665 25.7616V25.7241L45.2663 22.0081L45.2538 22.0206Z" fill="white"/>
</g>
<defs>
<clipPath id="clip0_2395_909">
<rect width="130" height="40" fill="white"/>
</clipPath>
</defs>
</svg>
