<svg width="98" height="30" viewBox="0 0 98 30" fill="none" xmlns="http://www.w3.org/2000/svg">
<g clip-path="url(#clip0_384_1130)">
<path d="M22.9689 6.48416L21.4804 12.0112L19.8694 18.0075L18.3808 23.5345L16.9393 28.8833C15.5733 29.3056 14.1318 29.5308 12.6244 29.5308C11.9272 29.5308 11.2395 29.4839 10.5706 29.39L12.1439 23.5345L13.6325 18.0075L15.2435 12.0112L15.8936 9.5902C16.7226 6.51231 11.9932 6.48416 11.9932 6.48416H10.4763L8.98779 12.0112L7.37675 18.0075L5.88819 23.5345L4.87069 27.3162C2.86396 26.0588 1.17756 24.3228 -0.00952148 22.2771L1.13987 18.0075L2.75091 12.0112L4.23947 6.48416L5.33234 2.43036C7.48038 1.20108 9.97702 0.487915 12.6338 0.487915C14.5558 0.487915 16.3929 0.853883 18.0699 1.52952L16.7321 6.48416H22.9689Z" fill="#189CD8"/>
<path d="M44.8829 16.5155L45.6931 13.4939L46.4468 10.7069L47.2571 7.6853H40.9637C40.4926 7.6853 40.0781 7.72284 39.72 7.79791C39.6918 7.79791 39.6541 7.80729 39.6258 7.81668C39.5316 7.83544 39.4374 7.85421 39.3526 7.88236C39.3244 7.88236 39.2961 7.90113 39.2678 7.91051C39.1548 7.94805 39.0417 7.9762 38.9475 8.02312C38.8439 8.06066 38.7497 8.10757 38.6649 8.14511C38.6178 8.16388 38.5801 8.19203 38.533 8.2108C38.4105 8.27648 38.2974 8.35155 38.1938 8.42662C38.1467 8.46416 38.0902 8.50169 38.0525 8.53923C38.0054 8.57676 37.9677 8.6143 37.9206 8.65183C37.8829 8.68937 37.8452 8.7269 37.8075 8.76444C37.7981 8.77382 37.7887 8.79259 37.7698 8.80198C37.751 8.83013 37.7227 8.84889 37.7039 8.87705C37.6662 8.92396 37.6285 8.98027 37.5908 9.02719C37.572 9.05534 37.5626 9.07411 37.5437 9.10226C37.4966 9.17733 37.4589 9.24301 37.4307 9.3087C37.4213 9.32747 37.4118 9.34624 37.4024 9.37439C37.4024 9.38377 37.4024 9.39315 37.393 9.40254C37.3742 9.44946 37.3553 9.49638 37.3365 9.53391L37.2894 9.72159L37.0256 10.6975L36.2719 13.4845L35.4616 16.5061L34.7079 19.2931L33.8977 22.3146H43.3378L44.148 19.2931H37.8546L38.6083 16.5061H44.9017L44.8829 16.5155ZM40.1534 10.7069H43.3001L42.5464 13.4939H39.3997L40.1534 10.7069Z" fill="#191919"/>
<path d="M56.471 13.4845L57.2247 10.6975L58.035 7.70405V7.6759H52.2126H48.6043L48.5383 7.9105L47.7846 10.7069L47.0309 13.4939L46.2207 16.5154L45.467 19.3024L45.1467 20.4942C45.1467 20.4942 45.1467 20.4942 45.1467 20.5129C45.1467 20.5129 45.1373 20.5692 45.1278 20.6068C45.0713 20.9821 45.109 22.2114 47.8035 22.3146C47.9071 22.3146 48.0202 22.3146 48.1332 22.3146H54.0969L54.9071 19.293L55.6608 16.5061L56.471 13.4845ZM53.3243 13.4845L52.5141 16.5061L51.7604 19.293H48.6137L49.358 16.5342L50.1682 13.5126L50.9219 10.7256H54.0686L53.3243 13.4845Z" fill="#191919"/>
<path d="M66.8815 14.8264L66.9192 14.6856L67.2396 13.4939L67.9933 10.7069L68.8035 7.6853H59.3634L58.5532 10.7069L57.7994 13.4939L56.9892 16.5155L56.2355 19.3024L55.4253 22.324H58.572L59.3822 19.3024L60.1359 16.5155H63.2826C66.0713 16.5155 66.7308 15.258 66.8815 14.8264ZM64.0929 13.4939H60.9462L61.6999 10.7069H64.8466L64.0929 13.4939Z" fill="#191919"/>
<path d="M78.0081 13.4845L78.7618 10.6975L79.572 7.6759H73.2786C70.6595 7.6759 69.887 8.84888 69.6609 9.43067L69.5761 9.75911L69.3217 10.6975L68.568 13.4845L67.7578 16.5061L67.0041 19.293L66.1938 22.3146H75.634L76.4442 19.293L77.1979 16.5061L78.0081 13.4845ZM74.8614 13.4845L74.0512 16.5061L73.2975 19.293H70.1508L70.9045 16.5061L71.3567 14.8357L71.7241 13.4845L72.4778 10.6975H75.6245L74.8708 13.4845H74.8614Z" fill="#191919"/>
<path d="M88.7859 13.4845L89.5397 10.6975L89.7658 9.85294C89.7658 9.85294 89.7846 9.79664 89.794 9.75911C89.794 9.74034 89.794 9.73096 89.8034 9.71219C90.2274 8.05126 88.9367 7.72282 88.183 7.6759H80.9098L80.0995 10.6975L79.3458 13.4845L78.5356 16.5061L77.7819 19.293L76.9717 22.3146H86.4118L87.222 19.293L87.9757 16.5061L88.7859 13.4845ZM85.6392 13.4845L85.4131 14.3102L84.8196 16.5061L84.0659 19.293H80.9192L81.6729 16.5061L82.4831 13.4845L83.2368 10.6975H86.3835L85.6298 13.4845H85.6392Z" fill="#191919"/>
<path d="M93.817 19.3024C91.8196 19.3024 92.0929 17.8855 92.1494 17.6509V17.6227L92.4509 16.5155L93.2611 13.4939L94.0148 10.7069L94.825 7.6853H91.6783L90.8681 10.7069L90.1144 13.4939L89.3042 16.5155L88.5505 19.3024L87.7402 22.324H97.1803L97.9906 19.3024H93.8075H93.817Z" fill="#191919"/>
<path d="M34.1144 16.5155L34.9246 13.4939L35.6783 10.7069L36.4885 7.6853H27.0484L26.2382 10.7069L25.4845 13.4939L24.6743 16.5155L23.9206 19.3024L23.1104 22.324H26.2571L27.0673 19.3306V19.3024L27.821 16.5155L28.6312 13.4939L29.3849 10.7069H30.148C30.148 10.7069 32.5316 10.7163 32.1171 12.2646L31.7873 13.4845L30.9771 16.5061L30.2234 19.2931L29.4132 22.3146H32.5599L33.3701 19.3212V19.2931L34.1238 16.5061L34.1144 16.5155Z" fill="#191919"/>
</g>
<defs>
<clipPath id="clip0_384_1130">
<rect width="98" height="30" fill="white"/>
</clipPath>
</defs>
</svg>
