<svg width="21" height="21" viewBox="0 0 21 21" fill="none" xmlns="http://www.w3.org/2000/svg">
<path d="M10.9218 8.00419C10.8778 7.96018 10.8378 7.91238 10.8023 7.86133L2.13735 16.5289C2.06659 16.5991 2.01044 16.6827 1.97211 16.7747C1.93379 16.8668 1.91406 16.9655 1.91406 17.0652C1.91406 17.1649 1.93379 17.2637 1.97211 17.3557C2.01044 17.4478 2.06659 17.5313 2.13735 17.6016L2.72437 18.1886C2.8665 18.3301 3.05888 18.4095 3.25943 18.4095C3.45998 18.4095 3.65236 18.3301 3.7945 18.1886L12.462 9.51847C12.4111 9.48475 12.3641 9.44555 12.3218 9.40159L10.9218 8.00419Z" fill="url(#paint0_linear_2948_2357)"/>
<path d="M16.0983 6.44945L16.1476 6.3975C16.202 6.34386 16.2451 6.27996 16.2746 6.20951C16.304 6.13906 16.3192 6.06347 16.3192 5.98711C16.3192 5.91075 16.304 5.83516 16.2746 5.76471C16.2451 5.69426 16.202 5.63036 16.1476 5.57672L14.7528 4.17932C14.699 4.12529 14.635 4.08241 14.5646 4.05316C14.4942 4.02391 14.4187 4.00885 14.3424 4.00885C14.2662 4.00885 14.1907 4.02391 14.1202 4.05316C14.0498 4.08241 13.9859 4.12529 13.932 4.17932L13.8801 4.23127C10.9762 1.95334 7.3684 1.18711 4.65412 2.28321C4.56775 2.31806 4.49499 2.37993 4.44672 2.45957C4.39845 2.53921 4.37726 2.63234 4.38632 2.72503C4.39539 2.81771 4.43422 2.90497 4.497 2.97375C4.55979 3.04253 4.64316 3.08914 4.73463 3.10659C6.98399 3.52477 9.38918 4.75854 11.5242 6.57932L11.2827 6.81828C11.2285 6.87485 11.1861 6.94165 11.158 7.01479C11.1299 7.08793 11.1167 7.16594 11.1191 7.24425C11.1196 7.39835 11.1812 7.54595 11.2905 7.65464L12.6853 9.04945C12.7391 9.10387 12.8033 9.14707 12.8739 9.17656C12.9446 9.20604 13.0204 9.22123 13.097 9.22123C13.1735 9.22123 13.2494 9.20604 13.32 9.17656C13.3907 9.14707 13.4548 9.10387 13.5087 9.04945L13.7502 8.81049C15.5684 10.9533 16.8022 13.3559 17.2203 15.6053C17.2371 15.6978 17.2838 15.7823 17.3533 15.8456C17.4227 15.909 17.5111 15.9478 17.6048 15.9559H17.6463C17.731 15.9577 17.8143 15.9338 17.8852 15.8875C17.9561 15.8411 18.0113 15.7745 18.0437 15.6962C19.1398 12.9585 18.3736 9.35075 16.0983 6.44945Z" fill="url(#paint1_linear_2948_2357)"/>
<defs>
<linearGradient id="paint0_linear_2948_2357" x1="1.91406" y1="13.1354" x2="12.462" y2="13.1354" gradientUnits="userSpaceOnUse">
<stop stop-color="#189CD8"/>
<stop offset="1" stop-color="#0A86BF"/>
</linearGradient>
<linearGradient id="paint1_linear_2948_2357" x1="4.38428" y1="8.87303" x2="18.537" y2="8.87303" gradientUnits="userSpaceOnUse">
<stop stop-color="#189CD8"/>
<stop offset="1" stop-color="#0A86BF"/>
</linearGradient>
</defs>
</svg>
