<svg width="17" height="17" viewBox="0 0 17 17" fill="none" xmlns="http://www.w3.org/2000/svg">
<path d="M8.78125 11.75C8.78125 11.8983 8.73727 12.0433 8.65485 12.1667C8.57244 12.29 8.45531 12.3861 8.31826 12.4429C8.18122 12.4997 8.03042 12.5145 7.88493 12.4856C7.73945 12.4566 7.60581 12.3852 7.50092 12.2803C7.39603 12.1754 7.3246 12.0418 7.29566 11.8963C7.26673 11.7508 7.28158 11.6 7.33834 11.463C7.39511 11.3259 7.49124 11.2088 7.61458 11.1264C7.73791 11.044 7.88292 11 8.03125 11C8.23017 11 8.42093 11.079 8.56158 11.2197C8.70223 11.3603 8.78125 11.5511 8.78125 11.75ZM8.03125 5C6.6525 5 5.53125 6.00938 5.53125 7.25V7.5C5.53125 7.63261 5.58393 7.75979 5.6777 7.85355C5.77147 7.94732 5.89864 8 6.03125 8C6.16386 8 6.29104 7.94732 6.38481 7.85355C6.47857 7.75979 6.53125 7.63261 6.53125 7.5V7.25C6.53125 6.5625 7.20438 6 8.03125 6C8.85813 6 9.53125 6.5625 9.53125 7.25C9.53125 7.9375 8.85813 8.5 8.03125 8.5C7.89864 8.5 7.77147 8.55268 7.6777 8.64645C7.58393 8.74021 7.53125 8.86739 7.53125 9V9.5C7.53125 9.63261 7.58393 9.75979 7.6777 9.85355C7.77147 9.94732 7.89864 10 8.03125 10C8.16386 10 8.29104 9.94732 8.38481 9.85355C8.47857 9.75979 8.53125 9.63261 8.53125 9.5V9.455C9.67125 9.24563 10.5313 8.33625 10.5313 7.25C10.5313 6.00938 9.41 5 8.03125 5ZM14.5313 8.5C14.5313 9.78558 14.15 11.0423 13.4358 12.1112C12.7216 13.1801 11.7064 14.0132 10.5187 14.5052C9.33098 14.9972 8.02404 15.1259 6.76317 14.8751C5.50229 14.6243 4.3441 14.0052 3.43506 13.0962C2.52602 12.1872 1.90695 11.029 1.65615 9.76809C1.40534 8.50721 1.53407 7.20028 2.02604 6.01256C2.51801 4.82484 3.35113 3.80968 4.42005 3.09545C5.48897 2.38122 6.74567 2 8.03125 2C9.7546 2.00182 11.4068 2.68722 12.6254 3.90582C13.844 5.12441 14.5294 6.77665 14.5313 8.5ZM13.5313 8.5C13.5313 7.4122 13.2087 6.34883 12.6043 5.44436C12 4.53989 11.141 3.83494 10.136 3.41866C9.13102 3.00238 8.02515 2.89346 6.95826 3.10568C5.89136 3.3179 4.91135 3.84172 4.14217 4.61091C3.37298 5.3801 2.84915 6.36011 2.63693 7.427C2.42472 8.4939 2.53363 9.59977 2.94992 10.6048C3.3662 11.6098 4.07115 12.4687 4.97562 13.0731C5.88009 13.6774 6.94346 14 8.03125 14C9.48944 13.9983 10.8874 13.4184 11.9185 12.3873C12.9496 11.3562 13.5296 9.95818 13.5313 8.5Z" fill="white"/>
</svg>
